# Blender 3.5.1
# www.blender.org
mtllib monster2.mtl
o Cube
v 1.387378 38.948719 -1.234548
v 0.657789 34.653545 -1.234548
v 1.387378 38.948719 0.651406
v 0.657789 34.653545 0.651406
v 0.263888 34.653545 -1.234548
v 0.263888 38.948719 0.651406
v 0.263888 34.653545 0.651406
v 0.263888 38.948719 -1.234548
v 1.387378 37.874928 -1.234548
v 1.387378 36.801132 -1.234548
v 1.387378 35.002308 -1.234548
v 1.387378 37.874928 0.651406
v 1.387378 36.801132 0.651406
v 1.387378 35.002308 0.651406
v 0.263888 37.874928 -1.234548
v 0.263888 36.801132 -1.234548
v 0.263888 35.002308 -1.234548
v 0.263888 37.874928 0.651406
v 0.263888 36.801132 0.651406
v 0.263888 35.002308 0.651406
v 1.822924 38.726974 -1.234548
v 1.822924 38.726974 0.651406
v 1.822924 38.096672 -1.234548
v 1.822924 38.096672 0.651406
v 2.040828 38.639503 -1.234548
v 2.040828 38.639503 0.651406
v 1.605019 38.184143 -1.234548
v 1.605019 38.184143 0.651406
v 2.364711 38.186367 -0.925095
v 2.364711 38.186367 0.341953
v 2.071920 37.880444 -0.925095
v 2.071920 37.880444 0.341953
v 2.428141 38.061729 -0.925095
v 2.428141 38.061729 0.341953
v 2.008490 38.005081 -0.925095
v 2.008490 38.005081 0.341953
v 2.657057 36.365833 -0.925095
v 2.657057 36.365833 0.341953
v 2.237406 36.309189 -0.925095
v 2.237406 36.309189 0.341953
v 2.712261 35.956863 -0.925095
v 2.712261 35.956863 0.341953
v 2.292609 35.900219 -0.925095
v 2.292609 35.900219 0.341953
v 2.618650 35.757679 -0.567790
v 2.618650 35.757679 -0.015352
v 2.435681 35.732983 -0.567790
v 2.435681 35.732983 -0.015352
v 2.516793 35.657467 -0.225647
v 2.516793 35.657467 -0.357495
v 2.560462 35.663364 -0.225647
v 2.560462 35.663364 -0.357495
v 1.559517 34.535892 -1.234548
v 0.751348 34.564137 -1.234548
v 1.559517 34.535892 0.651406
v 0.751348 34.564137 0.651406
v 1.514042 33.234749 -1.234548
v 0.705873 33.262993 -1.234548
v 1.514042 33.234749 0.651406
v 0.705873 33.262993 0.651406
v 1.466098 33.107155 -1.133195
v 0.744792 33.132362 -1.133195
v 1.466098 33.107155 0.550053
v 0.744792 33.132362 0.550053
v 1.405873 31.383972 -1.133195
v 0.684567 31.409182 -1.133195
v 1.405873 31.383972 0.550053
v 0.684567 31.409182 0.550053
v 1.396254 31.108778 -1.133195
v 0.674948 31.133987 -1.133195
v 1.396254 31.108778 0.550053
v 0.674948 31.133987 0.550053
v 1.271055 31.337862 1.040940
v 0.815836 31.353773 1.040940
v 1.264985 31.164186 1.040940
v 0.809766 31.180096 1.040940
v 1.387378 39.207405 -1.234548
v 1.387378 39.207405 0.651406
v 0.263888 39.207405 -1.234548
v 0.263888 39.207405 0.651406
v 1.601821 39.448380 -1.594524
v 1.392744 39.599148 1.011383
v 0.049445 39.448380 -1.594524
v 0.258522 39.599148 1.011383
v 1.601821 40.567829 -1.594524
v 1.392744 40.417057 1.011383
v 0.049445 40.567829 -1.594524
v 0.258522 40.417057 1.011383
v 1.074282 40.966721 -0.708968
v 1.074282 40.966721 0.125826
v 0.576983 40.966721 -0.708968
v 0.576983 40.966721 0.125826
v 1.392744 39.599148 1.011383
v 0.258522 39.599148 1.011383
v 1.392744 40.417057 1.011383
v 0.258522 40.417057 1.011383
v 0.999825 39.882488 1.274051
v 0.651440 39.882488 1.274051
v 0.999825 40.133717 1.274051
v 0.651440 40.133717 1.274051
v -0.736112 38.948719 -1.234548
v -0.006523 34.653545 -1.234548
v -0.736112 38.948719 0.651406
v -0.006523 34.653545 0.651406
v 0.387378 34.653545 -1.234548
v 0.387378 38.948719 0.651406
v 0.387378 34.653545 0.651406
v 0.387378 38.948719 -1.234548
v -0.736112 37.874928 -1.234548
v -0.736112 36.801132 -1.234548
v -0.736112 35.002308 -1.234548
v -0.736112 37.874928 0.651406
v -0.736112 36.801132 0.651406
v -0.736112 35.002308 0.651406
v 0.387378 37.874928 -1.234548
v 0.387378 36.801132 -1.234548
v 0.387378 35.002308 -1.234548
v 0.387378 37.874928 0.651406
v 0.387378 36.801132 0.651406
v 0.387378 35.002308 0.651406
v -1.171658 38.726974 -1.234548
v -1.171658 38.726974 0.651406
v -1.171658 38.096672 -1.234548
v -1.171658 38.096672 0.651406
v -1.389562 38.639503 -1.234548
v -1.389562 38.639503 0.651406
v -0.953754 38.184143 -1.234548
v -0.953754 38.184143 0.651406
v -1.713445 38.186367 -0.925095
v -1.713445 38.186367 0.341953
v -1.420654 37.880444 -0.925095
v -1.420654 37.880444 0.341953
v -1.776875 38.061729 -0.925095
v -1.776875 38.061729 0.341953
v -1.357224 38.005081 -0.925095
v -1.357224 38.005081 0.341953
v -2.005792 36.365833 -0.925095
v -2.005792 36.365833 0.341953
v -1.586140 36.309189 -0.925095
v -1.586140 36.309189 0.341953
v -2.060995 35.956863 -0.925095
v -2.060995 35.956863 0.341953
v -1.641344 35.900219 -0.925095
v -1.641344 35.900219 0.341953
v -1.967385 35.757679 -0.567790
v -1.967385 35.757679 -0.015352
v -1.784415 35.732983 -0.567790
v -1.784415 35.732983 -0.015352
v -1.865528 35.657467 -0.225647
v -1.865528 35.657467 -0.357495
v -1.909196 35.663364 -0.225647
v -1.909196 35.663364 -0.357495
v -0.908252 34.535892 -1.234548
v -0.100082 34.564137 -1.234548
v -0.908252 34.535892 0.651406
v -0.100082 34.564137 0.651406
v -0.862776 33.234749 -1.234548
v -0.054607 33.262993 -1.234548
v -0.862776 33.234749 0.651406
v -0.054607 33.262993 0.651406
v -0.814832 33.107155 -1.133195
v -0.093526 33.132362 -1.133195
v -0.814832 33.107155 0.550053
v -0.093526 33.132362 0.550053
v -0.754607 31.383972 -1.133195
v -0.033301 31.409182 -1.133195
v -0.754607 31.383972 0.550053
v -0.033301 31.409182 0.550053
v -0.744989 31.108778 -1.133195
v -0.023683 31.133987 -1.133195
v -0.744989 31.108778 0.550053
v -0.023683 31.133987 0.550053
v -0.619790 31.337862 1.040940
v -0.164570 31.353773 1.040940
v -0.613720 31.164186 1.040940
v -0.158500 31.180096 1.040940
v -0.736112 39.207405 -1.234548
v -0.736112 39.207405 0.651406
v 0.387378 39.207405 -1.234548
v 0.387378 39.207405 0.651406
v -0.950555 39.448380 -1.594524
v -0.741478 39.599148 1.011383
v 0.601821 39.448380 -1.594524
v 0.392744 39.599148 1.011383
v -0.950555 40.567829 -1.594524
v -0.741478 40.417057 1.011383
v 0.601821 40.567829 -1.594524
v 0.392744 40.417057 1.011383
v -0.423017 40.966721 -0.708968
v -0.423017 40.966721 0.125826
v 0.074282 40.966721 -0.708968
v 0.074282 40.966721 0.125826
v -0.741478 39.599148 1.011383
v 0.392744 39.599148 1.011383
v -0.741478 40.417057 1.011383
v 0.392744 40.417057 1.011383
v -0.348560 39.882488 1.274051
v -0.000174 39.882488 1.274051
v -0.348560 40.133717 1.274051
v -0.000174 40.133717 1.274051
vn -0.0000 -1.0000 -0.0000
vn -0.0000 -0.0000 -1.0000
vn -0.0000 -0.0000 1.0000
vn 1.0000 -0.0000 -0.0000
vn -0.6909 -0.7230 -0.0000
vn 0.3725 0.9280 -0.0000
vn 0.4537 -0.8912 -0.0000
vn 0.4537 0.8912 -0.0000
vn 0.3556 -0.3403 0.8705
vn -0.0000 -0.2425 0.9701
vn 0.8912 0.4536 -0.0000
vn 0.8136 0.5815 -0.0000
vn -0.5453 -0.8383 -0.0000
vn 0.3556 -0.3403 -0.8705
vn -0.9910 -0.1338 -0.0000
vn 0.9910 0.1338 -0.0000
vn -0.7599 -0.6501 -0.0000
vn 0.1298 -0.9613 -0.2429
vn 0.1188 -0.8802 -0.4595
vn 0.1188 -0.8802 0.4595
vn 0.9050 -0.4253 -0.0000
vn 0.1338 -0.9910 -0.0000
vn 0.1298 -0.9613 0.2429
vn 0.7013 -0.7128 -0.0000
vn -0.4872 -0.8733 -0.0000
vn 0.9994 -0.0349 -0.0000
vn 0.9381 0.3462 -0.0000
vn -0.9584 -0.2855 -0.0000
vn -0.9994 0.0349 -0.0000
vn -0.0216 -0.6169 -0.7868
vn 0.9361 -0.3517 -0.0000
vn -0.0216 -0.6169 0.7868
vn -0.0349 -0.9994 -0.0000
vn -0.9646 0.0337 0.2617
vn 0.0347 0.9941 0.1029
vn 0.9646 -0.0337 0.2617
vn -0.0347 -0.9941 0.1029
vn 0.9432 -0.3277 0.0549
vn -1.0000 -0.0000 -0.0000
vn -0.9968 -0.0000 0.0800
vn -0.9432 -0.3277 0.0549
vn -0.0000 -0.8310 -0.5563
vn -0.0000 -0.6766 0.7363
vn -0.0000 0.8496 0.5274
vn -0.0000 1.0000 -0.0000
vn 0.9968 -0.0000 0.0800
vn 0.7442 0.6638 0.0743
vn -0.7442 0.6638 0.0743
vn -0.0000 0.9118 -0.4107
vn -0.5558 -0.0000 0.8313
vn -0.0000 -0.6798 0.7334
vn 0.5558 -0.0000 0.8313
vn -0.0000 0.6798 0.7334
vn 0.6909 -0.7230 -0.0000
vn -0.3725 0.9280 -0.0000
vn -0.4537 -0.8912 -0.0000
vn -0.4537 0.8912 -0.0000
vn -0.3556 -0.3403 0.8705
vn -0.0000 -0.1240 0.9923
vn -0.8912 0.4536 -0.0000
vn -0.8136 0.5815 -0.0000
vn 0.5453 -0.8383 -0.0000
vn -0.3556 -0.3403 -0.8705
vn 0.9910 -0.1338 -0.0000
vn -0.0000 -0.0830 -0.9965
vn -0.9910 0.1338 -0.0000
vn 0.7599 -0.6501 -0.0000
vn -0.1298 -0.9613 -0.2429
vn -0.1188 -0.8802 -0.4595
vn -0.1188 -0.8802 0.4595
vn -0.9050 -0.4253 -0.0000
vn -0.1338 -0.9910 -0.0000
vn -0.1298 -0.9613 0.2429
vn -0.7013 -0.7128 -0.0000
vn 0.4872 -0.8733 -0.0000
vn -0.9994 -0.0349 -0.0000
vn -0.9381 0.3462 -0.0000
vn 0.9584 -0.2855 -0.0000
vn 0.9994 0.0349 -0.0000
vn 0.0216 -0.6169 -0.7868
vn -0.9361 -0.3517 -0.0000
vn 0.0216 -0.6169 0.7868
vn 0.0349 -0.9994 -0.0000
vn 0.9646 0.0337 0.2617
vn -0.0347 0.9941 0.1029
vn -0.9646 -0.0337 0.2617
vn 0.0347 -0.9941 0.1029
vt 0.625000 0.500000
vt 0.375000 0.500000
vt 0.625000 0.750000
vt 0.375000 0.750000
vt 0.250000 0.500000
vt 0.375000 0.375000
vt 0.000000 0.000000
vt 0.625000 0.875000
vt 0.250000 0.750000
vt 0.375000 0.875000
vt 0.000000 0.000000
vt 0.625000 0.375000
vt 0.562500 0.500000
vt 0.500000 0.500000
vt 0.437500 0.500000
vt 0.562500 0.750000
vt 0.500000 0.750000
vt 0.437500 0.750000
vt 0.562500 0.375000
vt 0.500000 0.375000
vt 0.437500 0.375000
vt 0.562500 0.875000
vt 0.500000 0.875000
vt 0.437500 0.875000
vt 0.625000 0.500000
vt 0.625000 0.750000
vt 0.562500 0.500000
vt 0.562500 0.750000
vt 0.625000 0.500000
vt 0.625000 0.750000
vt 0.562500 0.500000
vt 0.562500 0.750000
vt 0.625000 0.500000
vt 0.625000 0.750000
vt 0.562500 0.500000
vt 0.562500 0.750000
vt 0.625000 0.500000
vt 0.625000 0.750000
vt 0.562500 0.500000
vt 0.562500 0.750000
vt 0.625000 0.500000
vt 0.625000 0.750000
vt 0.562500 0.500000
vt 0.562500 0.750000
vt 0.625000 0.500000
vt 0.625000 0.750000
vt 0.562500 0.500000
vt 0.562500 0.750000
vt 0.625000 0.500000
vt 0.625000 0.750000
vt 0.562500 0.500000
vt 0.562500 0.750000
vt 0.625000 0.500000
vt 0.625000 0.750000
vt 0.562500 0.500000
vt 0.562500 0.750000
vt 0.437500 0.500000
vt 0.375000 0.500000
vt 0.437500 0.750000
vt 0.375000 0.750000
vt 0.437500 0.500000
vt 0.375000 0.500000
vt 0.437500 0.750000
vt 0.375000 0.750000
vt 0.437500 0.500000
vt 0.375000 0.500000
vt 0.437500 0.750000
vt 0.375000 0.750000
vt 0.437500 0.500000
vt 0.375000 0.500000
vt 0.437500 0.750000
vt 0.375000 0.750000
vt 0.437500 0.500000
vt 0.375000 0.500000
vt 0.437500 0.750000
vt 0.375000 0.750000
vt 0.437500 0.750000
vt 0.375000 0.750000
vt 0.437500 0.750000
vt 0.375000 0.750000
vt 0.625000 0.500000
vt 0.625000 0.750000
vt 0.000000 0.000000
vt 0.625000 0.375000
vt 0.000000 0.000000
vt 0.625000 0.875000
vt 0.625000 0.500000
vt 0.625000 0.750000
vt 0.000000 0.000000
vt 0.625000 0.375000
vt 0.625000 0.875000
vt 0.000000 0.000000
vt 0.625000 0.500000
vt 0.625000 0.750000
vt 0.000000 0.000000
vt 0.625000 0.375000
vt 0.000000 0.000000
vt 0.625000 0.875000
vt 0.625000 0.500000
vt 0.625000 0.750000
vt 0.750000 0.500000
vt 0.000000 0.000000
vt 0.625000 0.375000
vt 0.625000 0.875000
vt 0.750000 0.750000
vt 0.000000 0.000000
vt 0.625000 0.750000
vt 0.000000 0.000000
vt 0.625000 0.875000
vt 0.625000 0.750000
vt 0.000000 0.000000
vt 0.625000 0.875000
vt 0.625000 0.750000
vt 0.000000 0.000000
vt 0.625000 0.875000
vt 0.625000 0.750000
vt 0.000000 0.000000
vt 0.625000 0.875000
vt 0.625000 0.500000
vt 0.375000 0.500000
vt 0.625000 0.750000
vt 0.375000 0.750000
vt 0.250000 0.500000
vt 0.375000 0.375000
vt 0.000000 0.000000
vt 0.625000 0.875000
vt 0.250000 0.750000
vt 0.375000 0.875000
vt 0.000000 0.000000
vt 0.625000 0.375000
vt 0.562500 0.500000
vt 0.500000 0.500000
vt 0.437500 0.500000
vt 0.562500 0.750000
vt 0.500000 0.750000
vt 0.437500 0.750000
vt 0.562500 0.375000
vt 0.500000 0.375000
vt 0.437500 0.375000
vt 0.562500 0.875000
vt 0.500000 0.875000
vt 0.437500 0.875000
vt 0.625000 0.500000
vt 0.625000 0.750000
vt 0.562500 0.500000
vt 0.562500 0.750000
vt 0.625000 0.500000
vt 0.625000 0.750000
vt 0.562500 0.500000
vt 0.562500 0.750000
vt 0.625000 0.500000
vt 0.625000 0.750000
vt 0.562500 0.500000
vt 0.562500 0.750000
vt 0.625000 0.500000
vt 0.625000 0.750000
vt 0.562500 0.500000
vt 0.562500 0.750000
vt 0.625000 0.500000
vt 0.625000 0.750000
vt 0.562500 0.500000
vt 0.562500 0.750000
vt 0.625000 0.500000
vt 0.625000 0.750000
vt 0.562500 0.500000
vt 0.562500 0.750000
vt 0.625000 0.500000
vt 0.625000 0.750000
vt 0.562500 0.500000
vt 0.562500 0.750000
vt 0.625000 0.500000
vt 0.625000 0.750000
vt 0.562500 0.500000
vt 0.562500 0.750000
vt 0.437500 0.500000
vt 0.375000 0.500000
vt 0.437500 0.750000
vt 0.375000 0.750000
vt 0.437500 0.500000
vt 0.375000 0.500000
vt 0.437500 0.750000
vt 0.375000 0.750000
vt 0.437500 0.500000
vt 0.375000 0.500000
vt 0.437500 0.750000
vt 0.375000 0.750000
vt 0.437500 0.500000
vt 0.375000 0.500000
vt 0.437500 0.750000
vt 0.375000 0.750000
vt 0.437500 0.500000
vt 0.375000 0.500000
vt 0.437500 0.750000
vt 0.375000 0.750000
vt 0.437500 0.750000
vt 0.375000 0.750000
vt 0.437500 0.750000
vt 0.375000 0.750000
vt 0.625000 0.500000
vt 0.625000 0.750000
vt 0.000000 0.000000
vt 0.625000 0.375000
vt 0.000000 0.000000
vt 0.625000 0.875000
vt 0.625000 0.500000
vt 0.625000 0.750000
vt 0.000000 0.000000
vt 0.625000 0.375000
vt 0.625000 0.875000
vt 0.000000 0.000000
vt 0.625000 0.500000
vt 0.625000 0.750000
vt 0.000000 0.000000
vt 0.625000 0.375000
vt 0.000000 0.000000
vt 0.625000 0.875000
vt 0.625000 0.500000
vt 0.625000 0.750000
vt 0.750000 0.500000
vt 0.000000 0.000000
vt 0.625000 0.375000
vt 0.625000 0.875000
vt 0.750000 0.750000
vt 0.000000 0.000000
vt 0.625000 0.750000
vt 0.000000 0.000000
vt 0.625000 0.875000
vt 0.625000 0.750000
vt 0.000000 0.000000
vt 0.625000 0.875000
vt 0.625000 0.750000
vt 0.000000 0.000000
vt 0.625000 0.875000
vt 0.625000 0.750000
vt 0.000000 0.000000
vt 0.625000 0.875000
s 0
usemtl eye
f 5/5/1 2/2/1 4/4/1 7/9/1
f 9/13/2 1/1/2 21/25/2 23/27/2
f 15/19/2 8/12/2 1/1/2 9/13/2
f 12/16/3 3/3/3 6/8/3 18/22/3
f 3/3/4 1/1/4 77/81/4 78/82/4
f 4/4/3 14/18/3 20/24/3 7/10/3
f 14/18/3 13/17/3 19/23/3 20/24/3
f 13/17/3 12/16/3 18/22/3 19/23/3
f 5/6/2 17/21/2 11/15/2 2/2/2
f 17/21/2 16/20/2 10/14/2 11/15/2
f 16/20/2 15/19/2 9/13/2 10/14/2
f 4/4/5 2/2/5 54/58/5 56/60/5
f 11/15/4 10/14/4 13/17/4 14/18/4
f 10/14/4 9/13/4 12/16/4 13/17/4
f 24/28/6 23/27/6 27/31/6 28/32/6
f 12/16/7 9/13/7 23/27/7 24/28/7
f 3/3/3 12/16/3 24/28/3 22/26/3
f 1/1/8 3/3/8 22/26/8 21/25/8
f 26/30/9 28/32/9 32/36/9 30/34/9
f 23/27/10 21/25/10 25/29/10 27/31/10
f 22/26/2 24/28/2 28/32/2 26/30/2
f 21/25/6 22/26/6 26/30/6 25/29/6
f 29/33/11 30/34/11 34/38/11 33/37/11
f 25/29/12 26/30/12 30/34/12 29/33/12
f 28/32/13 27/31/13 31/35/13 32/36/13
f 27/31/14 25/29/14 29/33/14 31/35/14
f 36/40/15 35/39/15 39/43/15 40/44/15
f 32/36/11 31/35/11 35/39/11 36/40/11
f 31/35/3 29/33/3 33/37/3 35/39/3
f 30/34/2 32/36/2 36/40/2 34/38/2
f 38/42/3 40/44/3 44/48/3 42/46/3
f 35/39/2 33/37/2 37/41/2 39/43/2
f 34/38/3 36/40/3 40/44/3 38/42/3
f 33/37/16 34/38/16 38/42/16 37/41/16
f 44/48/17 43/47/17 47/51/17 48/52/17
f 37/41/16 38/42/16 42/46/16 41/45/16
f 40/44/15 39/43/15 43/47/15 44/48/15
f 39/43/2 37/41/2 41/45/2 43/47/2
f 47/51/18 45/49/18 49/53/18 51/55/18
f 43/47/19 41/45/19 45/49/19 47/51/19
f 42/46/20 44/48/20 48/52/20 46/50/20
f 41/45/21 42/46/21 46/50/21 45/49/21
f 51/55/22 49/53/22 50/54/22 52/56/22
f 46/50/23 48/52/23 52/56/23 50/54/23
f 45/49/24 46/50/24 50/54/24 49/53/24
f 48/52/25 47/51/25 51/55/25 52/56/25
f 53/57/26 55/59/26 59/63/26 57/61/26
f 14/18/3 4/4/3 56/60/3 55/59/3
f 11/15/27 14/18/27 55/59/27 53/57/27
f 2/2/2 11/15/2 53/57/2 54/58/2
f 60/64/28 58/62/28 62/66/28 64/68/28
f 55/59/3 56/60/3 60/64/3 59/63/3
f 56/60/29 54/58/29 58/62/29 60/64/29
f 54/58/2 53/57/2 57/61/2 58/62/2
f 64/68/29 62/66/29 66/70/29 68/72/29
f 58/62/30 57/61/30 61/65/30 62/66/30
f 57/61/31 59/63/31 63/67/31 61/65/31
f 59/63/32 60/64/32 64/68/32 63/67/32
f 65/69/26 67/71/26 71/75/26 69/73/26
f 62/66/2 61/65/2 65/69/2 66/70/2
f 61/65/26 63/67/26 67/71/26 65/69/26
f 63/67/3 64/68/3 68/72/3 67/71/3
f 70/74/33 69/73/33 71/75/33 72/76/33
f 68/72/34 72/76/34 76/80/34 74/78/34
f 68/72/29 66/70/29 70/74/29 72/76/29
f 66/70/2 65/69/2 69/73/2 70/74/2
f 73/77/3 74/78/3 76/80/3 75/79/3
f 67/71/35 68/72/35 74/78/35 73/77/35
f 71/75/36 67/71/36 73/77/36 75/79/36
f 72/76/37 71/75/37 75/79/37 76/80/37
f 78/82/38 77/81/38 81/87/38 82/88/38
f 8/11/39 6/7/39 80/85/39 79/83/39
f 6/8/3 3/3/3 78/82/3 80/86/3
f 1/1/2 8/12/2 79/84/2 77/81/2
f 83/89/40 84/92/40 88/97/40 87/95/40
f 79/83/41 80/85/41 84/92/41 83/89/41
f 77/81/42 79/84/42 83/90/42 81/87/42
f 80/86/43 78/82/43 82/88/43 84/91/43
f 88/98/44 86/94/44 90/100/44 92/104/44
f 81/87/2 83/90/2 87/96/2 85/93/2
f 82/88/45 86/94/45 95/110/45 93/107/45
f 82/88/46 81/87/46 85/93/46 86/94/46
f 89/99/45 91/101/45 92/105/45 90/100/45
f 86/94/47 85/93/47 89/99/47 90/100/47
f 87/95/48 88/97/48 92/106/48 91/102/48
f 85/93/49 87/96/49 91/103/49 89/99/49
f 96/111/50 94/108/50 98/114/50 100/117/50
f 84/91/45 82/88/45 93/107/45 94/109/45
f 88/97/45 84/92/45 94/108/45 96/111/45
f 86/94/45 88/98/45 96/112/45 95/110/45
f 98/115/3 97/113/3 99/116/3 100/118/3
f 94/109/51 93/107/51 97/113/51 98/115/51
f 93/107/52 95/110/52 99/116/52 97/113/52
f 95/110/53 96/112/53 100/118/53 99/116/53
f 105/123/1 107/127/1 104/122/1 102/120/1
f 109/131/2 123/145/2 121/143/2 101/119/2
f 115/137/2 109/131/2 101/119/2 108/130/2
f 112/134/3 118/140/3 106/126/3 103/121/3
f 103/121/39 178/200/39 177/199/39 101/119/39
f 104/122/3 107/128/3 120/142/3 114/136/3
f 114/136/3 120/142/3 119/141/3 113/135/3
f 113/135/3 119/141/3 118/140/3 112/134/3
f 105/124/2 102/120/2 111/133/2 117/139/2
f 117/139/2 111/133/2 110/132/2 116/138/2
f 116/138/2 110/132/2 109/131/2 115/137/2
f 104/122/54 156/178/54 154/176/54 102/120/54
f 111/133/39 114/136/39 113/135/39 110/132/39
f 110/132/39 113/135/39 112/134/39 109/131/39
f 124/146/55 128/150/55 127/149/55 123/145/55
f 112/134/56 124/146/56 123/145/56 109/131/56
f 103/121/3 122/144/3 124/146/3 112/134/3
f 101/119/57 121/143/57 122/144/57 103/121/57
f 126/148/58 130/152/58 132/154/58 128/150/58
f 123/145/59 127/149/59 125/147/59 121/143/59
f 122/144/2 126/148/2 128/150/2 124/146/2
f 121/143/55 125/147/55 126/148/55 122/144/55
f 129/151/60 133/155/60 134/156/60 130/152/60
f 125/147/61 129/151/61 130/152/61 126/148/61
f 128/150/62 132/154/62 131/153/62 127/149/62
f 127/149/63 131/153/63 129/151/63 125/147/63
f 136/158/64 140/162/64 139/161/64 135/157/64
f 132/154/60 136/158/60 135/157/60 131/153/60
f 131/153/3 135/157/3 133/155/3 129/151/3
f 130/152/65 134/156/65 136/158/65 132/154/65
f 138/160/3 142/164/3 144/166/3 140/162/3
f 135/157/2 139/161/2 137/159/2 133/155/2
f 134/156/3 138/160/3 140/162/3 136/158/3
f 133/155/66 137/159/66 138/160/66 134/156/66
f 144/166/67 148/170/67 147/169/67 143/165/67
f 137/159/66 141/163/66 142/164/66 138/160/66
f 140/162/64 144/166/64 143/165/64 139/161/64
f 139/161/2 143/165/2 141/163/2 137/159/2
f 147/169/68 151/173/68 149/171/68 145/167/68
f 143/165/69 147/169/69 145/167/69 141/163/69
f 142/164/70 146/168/70 148/170/70 144/166/70
f 141/163/71 145/167/71 146/168/71 142/164/71
f 151/173/72 152/174/72 150/172/72 149/171/72
f 146/168/73 150/172/73 152/174/73 148/170/73
f 145/167/74 149/171/74 150/172/74 146/168/74
f 148/170/75 152/174/75 151/173/75 147/169/75
f 153/175/76 157/179/76 159/181/76 155/177/76
f 114/136/3 155/177/3 156/178/3 104/122/3
f 111/133/77 153/175/77 155/177/77 114/136/77
f 102/120/2 154/176/2 153/175/2 111/133/2
f 160/182/78 164/186/78 162/184/78 158/180/78
f 155/177/3 159/181/3 160/182/3 156/178/3
f 156/178/79 160/182/79 158/180/79 154/176/79
f 154/176/2 158/180/2 157/179/2 153/175/2
f 164/186/79 168/190/79 166/188/79 162/184/79
f 158/180/80 162/184/80 161/183/80 157/179/80
f 157/179/81 161/183/81 163/185/81 159/181/81
f 159/181/82 163/185/82 164/186/82 160/182/82
f 165/187/76 169/191/76 171/193/76 167/189/76
f 162/184/2 166/188/2 165/187/2 161/183/2
f 161/183/76 165/187/76 167/189/76 163/185/76
f 163/185/3 167/189/3 168/190/3 164/186/3
f 170/192/83 172/194/83 171/193/83 169/191/83
f 168/190/84 174/196/84 176/198/84 172/194/84
f 168/190/79 172/194/79 170/192/79 166/188/79
f 166/188/2 170/192/2 169/191/2 165/187/2
f 173/195/3 175/197/3 176/198/3 174/196/3
f 167/189/85 173/195/85 174/196/85 168/190/85
f 171/193/86 175/197/86 173/195/86 167/189/86
f 172/194/87 176/198/87 175/197/87 171/193/87
f 178/200/41 182/206/41 181/205/41 177/199/41
f 108/129/4 179/201/4 180/203/4 106/125/4
f 106/126/3 180/204/3 178/200/3 103/121/3
f 101/119/2 177/199/2 179/202/2 108/130/2
f 183/207/46 187/213/46 188/215/46 184/210/46
f 179/201/38 183/207/38 184/210/38 180/203/38
f 177/199/42 181/205/42 183/208/42 179/202/42
f 180/204/43 184/209/43 182/206/43 178/200/43
f 188/216/44 192/222/44 190/218/44 186/212/44
f 181/205/2 185/211/2 187/214/2 183/208/2
f 182/206/45 193/225/45 195/228/45 186/212/45
f 182/206/40 186/212/40 185/211/40 181/205/40
f 189/217/45 190/218/45 192/223/45 191/219/45
f 186/212/48 190/218/48 189/217/48 185/211/48
f 187/213/47 191/220/47 192/224/47 188/215/47
f 185/211/49 189/217/49 191/221/49 187/214/49
f 196/229/52 200/235/52 198/232/52 194/226/52
f 184/209/45 194/227/45 193/225/45 182/206/45
f 188/215/45 196/229/45 194/226/45 184/210/45
f 186/212/45 195/228/45 196/230/45 188/216/45
f 198/233/3 200/236/3 199/234/3 197/231/3
f 194/227/51 198/233/51 197/231/51 193/225/51
f 193/225/50 197/231/50 199/234/50 195/228/50
f 195/228/53 199/234/53 200/236/53 196/230/53
